<?xml version="1.0" encoding="UTF-8"?><svg id="uuid-60e30711-8d1f-490a-ad7e-efd861f3fe09" xmlns="http://www.w3.org/2000/svg" width="641.23" height="256" viewBox="0 0 641.23 256"><defs><style>.uuid-7087b723-c65d-4510-81cd-53525ea40488,.uuid-4bc6fec4-e2a9-410d-8620-10fd38aacd2b{fill:#fff;}.uuid-4bc6fec4-e2a9-410d-8620-10fd38aacd2b{stroke-linecap:round;}.uuid-4bc6fec4-e2a9-410d-8620-10fd38aacd2b,.uuid-091f7402-4688-4882-ace3-36b2cb9346a2,.uuid-e605d209-1791-44fc-8825-cfba5dcd9b5e,.uuid-6bbbcdf8-ddab-4f14-baf8-fb8812b734a2,.uuid-fa95b1ba-90b0-407a-ab47-c2a27c19e362{stroke:#000;stroke-linejoin:round;stroke-width:10px;}.uuid-091f7402-4688-4882-ace3-36b2cb9346a2{fill:#a8feff;}.uuid-e605d209-1791-44fc-8825-cfba5dcd9b5e{fill:#b7feb9;}.uuid-6bbbcdf8-ddab-4f14-baf8-fb8812b734a2{fill:#feb1fe;}.uuid-fa95b1ba-90b0-407a-ab47-c2a27c19e362{fill:none;}</style></defs><g id="uuid-c43d2589-511c-455a-bf72-d5c118dd78ac"><path class="uuid-7087b723-c65d-4510-81cd-53525ea40488" d="M128.19,0C92.85,0,60.85,14.33,37.68,37.49,14.52,60.65,.19,92.65,.19,128c0,70.7,57.31,128,128,128H641.23V0H128.19Zm-.21,250.99c0-67.92,55.06-122.99,122.99-122.99,0,67.93-55.07,122.99-122.99,122.99Z"/><path class="uuid-6bbbcdf8-ddab-4f14-baf8-fb8812b734a2" d="M127.99,5.02c0,67.93-55.06,122.99-122.99,122.99C5,60.08,60.06,5.02,127.99,5.02Z"/><path class="uuid-091f7402-4688-4882-ace3-36b2cb9346a2" d="M250.97,128c-67.93,0-122.99-55.06-122.99-122.99,67.92,0,122.99,55.06,122.99,122.99Z"/><path class="uuid-e605d209-1791-44fc-8825-cfba5dcd9b5e" d="M127.99,250.99c-67.93,0-122.99-55.06-122.99-122.99,67.92,0,122.99,55.06,122.99,122.99Z"/><path class="uuid-4bc6fec4-e2a9-410d-8620-10fd38aacd2b" d="M250.97,128c-67.93,0-122.99,55.06-122.99,122.99,0-67.92-55.06-122.99-122.99-122.99,67.92,0,122.99-55.06,122.99-122.99,0,67.93,55.06,122.99,122.99,122.99Z"/><path class="uuid-fa95b1ba-90b0-407a-ab47-c2a27c19e362" d="M250.97,128c0,67.93-55.06,122.99-122.99,122.99,0-67.92,55.06-122.99,122.99-122.99Z"/><g><path d="M331.61,121.25c-4.68,0-8.85-.84-12.51-2.52-3.66-1.68-6.53-4.14-8.6-7.38-2.07-3.24-3.1-7.26-3.1-12.06v-2.16h9.36v2.16c0,4.62,1.36,8.06,4.1,10.31,2.73,2.25,6.31,3.38,10.75,3.38s7.99-.97,10.3-2.93c2.31-1.95,3.46-4.42,3.46-7.42,0-2.04-.54-3.69-1.62-4.95-1.08-1.26-2.62-2.28-4.63-3.06-2.01-.78-4.4-1.5-7.16-2.16l-3.51-.9c-3.96-.9-7.41-2.07-10.35-3.51-2.94-1.44-5.22-3.31-6.84-5.62-1.62-2.31-2.43-5.29-2.43-8.96s.9-6.82,2.7-9.5c1.8-2.67,4.33-4.71,7.61-6.12,3.27-1.41,7.06-2.12,11.38-2.12s8.29,.75,11.75,2.25c3.45,1.5,6.17,3.72,8.14,6.66,1.98,2.94,2.97,6.6,2.97,10.98v3.33h-9.36v-3.33c0-2.76-.57-4.98-1.71-6.66-1.14-1.68-2.72-2.92-4.73-3.73-2.01-.81-4.36-1.22-7.06-1.22-3.9,0-6.93,.81-9.09,2.43s-3.24,3.87-3.24,6.75c0,1.98,.48,3.59,1.44,4.81,.96,1.23,2.35,2.25,4.19,3.06,1.83,.81,4.06,1.52,6.71,2.12l3.51,.81c4.02,.9,7.59,2.06,10.71,3.46,3.12,1.41,5.56,3.3,7.33,5.67,1.77,2.37,2.66,5.45,2.66,9.23s-.95,7.08-2.83,9.9c-1.89,2.82-4.56,5.03-8.01,6.62-3.45,1.59-7.55,2.38-12.29,2.38Z"/><path d="M378.86,119.99v-54.36h-19.35v-8.64h48.24v8.64h-19.35v54.36h-9.54Z"/><path d="M417.74,119.99V56.99h26.28c3.96,0,7.41,.67,10.35,2.03,2.94,1.35,5.23,3.28,6.88,5.8,1.65,2.52,2.48,5.52,2.48,9v.99c0,3.96-.95,7.12-2.83,9.5-1.89,2.37-4.19,4.04-6.89,4.99v1.44c2.28,.06,4.11,.81,5.49,2.25,1.38,1.44,2.07,3.45,2.07,6.03v20.97h-9.45v-19.62c0-1.62-.44-2.91-1.3-3.87-.87-.96-2.27-1.44-4.19-1.44h-19.44v24.93h-9.45Zm9.45-33.57h15.84c3.54,0,6.3-.88,8.28-2.65,1.98-1.77,2.97-4.21,2.97-7.33v-.81c0-3.12-.96-5.56-2.88-7.33-1.92-1.77-4.71-2.66-8.37-2.66h-15.84v20.79Z"/><path d="M495.68,121.25c-6.3,0-11.3-1.75-14.99-5.26-3.69-3.51-5.54-8.47-5.54-14.9v-2.79h9.45v2.79c0,3.48,.93,6.27,2.79,8.37,1.86,2.1,4.56,3.15,8.1,3.15s6.03-1.05,7.65-3.15c1.62-2.1,2.43-4.89,2.43-8.37V56.99h9.45v44.1c0,6.54-1.68,11.54-5.04,14.99-3.36,3.45-8.13,5.17-14.31,5.17Zm-20.52-32.49v-31.77h9.45v31.77h-9.45Z"/><path d="M528.97,119.99V56.99h24.84c3.9,0,7.35,.76,10.35,2.29,3,1.53,5.36,3.68,7.07,6.44s2.57,6.09,2.57,9.99v1.26c0,3.84-.89,7.17-2.66,9.99-1.77,2.82-4.16,4.98-7.16,6.48-3,1.5-6.39,2.25-10.17,2.25h-15.39v24.3h-9.45Zm9.45-32.94h14.49c3.48,0,6.26-.9,8.33-2.7,2.07-1.8,3.11-4.32,3.11-7.56v-.9c0-3.24-1.02-5.76-3.06-7.56-2.04-1.8-4.83-2.7-8.37-2.7h-14.49v21.42Z"/><path d="M331.61,201.25c-4.68,0-8.85-.84-12.51-2.52-3.66-1.68-6.53-4.14-8.6-7.38-2.07-3.24-3.1-7.26-3.1-12.06v-2.16h9.36v2.16c0,4.62,1.36,8.06,4.1,10.31,2.73,2.25,6.31,3.38,10.75,3.38s7.99-.97,10.3-2.93c2.31-1.95,3.46-4.42,3.46-7.42,0-2.04-.54-3.69-1.62-4.95-1.08-1.26-2.62-2.28-4.63-3.06-2.01-.78-4.4-1.5-7.16-2.16l-3.51-.9c-3.96-.9-7.41-2.07-10.35-3.51-2.94-1.44-5.22-3.31-6.84-5.62-1.62-2.31-2.43-5.29-2.43-8.96s.9-6.82,2.7-9.5c1.8-2.67,4.33-4.71,7.61-6.12,3.27-1.41,7.06-2.12,11.38-2.12s8.29,.75,11.75,2.25c3.45,1.5,6.17,3.72,8.14,6.66,1.98,2.94,2.97,6.6,2.97,10.98v3.33h-9.36v-3.33c0-2.76-.57-4.98-1.71-6.66-1.14-1.68-2.72-2.92-4.73-3.73-2.01-.81-4.36-1.22-7.06-1.22-3.9,0-6.93,.81-9.09,2.43s-3.24,3.87-3.24,6.75c0,1.98,.48,3.59,1.44,4.81,.96,1.23,2.35,2.25,4.19,3.06,1.83,.81,4.06,1.52,6.71,2.12l3.51,.81c4.02,.9,7.59,2.06,10.71,3.46,3.12,1.41,5.56,3.3,7.33,5.67,1.77,2.37,2.66,5.45,2.66,9.23s-.95,7.08-2.83,9.9c-1.89,2.82-4.56,5.03-8.01,6.62-3.45,1.59-7.55,2.38-12.29,2.38Z"/><path d="M365.18,199.99v-63h24.84c3.9,0,7.35,.76,10.35,2.29,3,1.53,5.36,3.68,7.07,6.44s2.57,6.09,2.57,9.99v1.26c0,3.84-.89,7.17-2.66,9.99-1.77,2.82-4.16,4.98-7.16,6.48-3,1.5-6.39,2.25-10.17,2.25h-15.39v24.3h-9.45Zm9.45-32.94h14.49c3.48,0,6.26-.9,8.33-2.7,2.07-1.8,3.11-4.32,3.11-7.56v-.9c0-3.24-1.02-5.76-3.06-7.56-2.04-1.8-4.83-2.7-8.37-2.7h-14.49v21.42Z"/><path d="M409.64,199.99l18.18-63h16.56l18.18,63h-9.81l-4.23-15.03h-24.93l-4.14,15.03h-9.81Zm16.29-23.67h20.25l-9.36-33.48h-1.44l-9.45,33.48Z"/><path d="M471.19,199.99v-63h26.28c3.96,0,7.41,.67,10.35,2.03,2.94,1.35,5.23,3.28,6.88,5.8,1.65,2.52,2.48,5.52,2.48,9v.99c0,3.96-.95,7.12-2.83,9.5-1.89,2.37-4.19,4.04-6.89,4.99v1.44c2.28,.06,4.11,.81,5.49,2.25,1.38,1.44,2.07,3.45,2.07,6.03v20.97h-9.45v-19.62c0-1.62-.44-2.91-1.3-3.87-.87-.96-2.27-1.44-4.19-1.44h-19.44v24.93h-9.45Zm9.45-33.57h15.84c3.54,0,6.3-.88,8.28-2.65,1.98-1.77,2.97-4.21,2.97-7.33v-.81c0-3.12-.96-5.56-2.88-7.33-1.92-1.77-4.71-2.66-8.37-2.66h-15.84v20.79Z"/><path d="M528.07,199.99v-63h9.45v26.37h1.44l23.85-26.37h12.42l-28.8,31.05,29.79,31.95h-12.78l-24.48-26.91h-1.44v26.91h-9.45Z"/></g></g></svg>