<?xml version="1.0" encoding="UTF-8"?><svg id="uuid-1f8d8dbc-1fbe-4ae2-8530-c8e46529377a" xmlns="http://www.w3.org/2000/svg" width="1925" height="118.66" viewBox="0 0 1925 118.66"><defs><style>.uuid-fb36ac19-481c-4cab-bb71-9fda258d0dfb{fill:#fff;}.uuid-fb36ac19-481c-4cab-bb71-9fda258d0dfb,.uuid-401610c6-0ca8-471a-a3c8-7a017424519a,.uuid-cfc650d9-a89b-4edf-bd37-6a7cb133f625,.uuid-115531ba-a5fc-49c5-934f-0ff5b746eec2{stroke:#080f0f;stroke-miterlimit:10;stroke-width:5px;}.uuid-401610c6-0ca8-471a-a3c8-7a017424519a{fill:#feb1fe;}.uuid-cfc650d9-a89b-4edf-bd37-6a7cb133f625{fill:#b7feb9;}.uuid-115531ba-a5fc-49c5-934f-0ff5b746eec2{fill:#a8feff;}</style></defs><g id="uuid-ac0422cb-14e0-452f-bf1e-abdd6d4c0115"><path class="uuid-cfc650d9-a89b-4edf-bd37-6a7cb133f625" d="M171.84,59.71h84.65v-.72c-.24-21.11-12.11-39.41-29.47-48.87-8.26,21.59-55.18,23.86-55.18,49.58Z"/><path class="uuid-401610c6-0ca8-471a-a3c8-7a017424519a" d="M171.86,59.69h28.24c0,25.73,46.92,28,55.18,49.58-8.01,4.38-17.19,6.85-26.96,6.85-31.18,0-56.45-25.27-56.45-56.43Z"/><path class="uuid-fb36ac19-481c-4cab-bb71-9fda258d0dfb" d="M1357.89,58.96c-31.18,0-56.46,25.27-56.46,56.46,31.18,0,56.46-25.27,56.46-56.46Z"/><path class="uuid-cfc650d9-a89b-4edf-bd37-6a7cb133f625" d="M1357.89,2.5c-31.18,0-56.46,25.27-56.46,56.46,31.18,0,56.46-25.27,56.46-56.46Z"/><path class="uuid-401610c6-0ca8-471a-a3c8-7a017424519a" d="M1188.52,115.4c-31.16,0-56.43-25.27-56.43-56.45,31.16,0,56.43,25.27,56.43,56.45Z"/><path class="uuid-fb36ac19-481c-4cab-bb71-9fda258d0dfb" d="M1160.27,2.5c-31.16,0-56.43,25.27-56.43,56.45,31.16,0,56.43-25.27,56.43-56.45Z"/><path class="uuid-cfc650d9-a89b-4edf-bd37-6a7cb133f625" d="M1103.84,115.41v-28.24c-25.73,0-28-46.92-49.58-55.18-4.38,8.01-6.85,17.19-6.85,26.96,0,31.18,25.27,56.45,56.43,56.45Z"/><path class="uuid-115531ba-a5fc-49c5-934f-0ff5b746eec2" d="M1047.33,58.95h-84.65v-.72c.24-21.11,12.11-39.41,29.47-48.87,8.26,21.59,55.18,23.86,55.18,49.58Z"/><path class="uuid-115531ba-a5fc-49c5-934f-0ff5b746eec2" d="M1160.3,87.15V2.5h-.72c-21.11,.24-39.41,12.11-48.87,29.47,21.59,8.26,23.86,55.18,49.58,55.18Z"/><path class="uuid-cfc650d9-a89b-4edf-bd37-6a7cb133f625" d="M1357.89,58.96h-84.65v.72c.24,21.11,12.11,39.41,29.47,48.87,8.26-21.59,55.18-23.86,55.18-49.58Z"/><path class="uuid-fb36ac19-481c-4cab-bb71-9fda258d0dfb" d="M962.68,58.23c-.02,.24-.02,.5-.02,.74s0,.48,.02,.72v-1.45Z"/><path class="uuid-401610c6-0ca8-471a-a3c8-7a017424519a" d="M1019.11,115.4c-31.16,0-56.43-25.27-56.43-56.45,31.16,0,56.43,25.27,56.43,56.45Z"/><path class="uuid-fb36ac19-481c-4cab-bb71-9fda258d0dfb" d="M962.68,58.96c-31.16,0-56.43-25.27-56.43-56.45,31.16,0,56.43,25.27,56.43,56.45Z"/><path class="uuid-401610c6-0ca8-471a-a3c8-7a017424519a" d="M1103.82,58.96c-31.16,0-56.43-25.27-56.43-56.45,31.16,0,56.43,25.27,56.43,56.45Z"/><path class="uuid-fb36ac19-481c-4cab-bb71-9fda258d0dfb" d="M425.93,116.14c31.16,0,56.43-25.27,56.43-56.45-31.16,0-56.43,25.27-56.43,56.45Z"/><path class="uuid-115531ba-a5fc-49c5-934f-0ff5b746eec2" d="M284.79,116.14c31.16,0,56.43-25.27,56.43-56.45-31.16,0-56.43,25.27-56.43,56.45Z"/><path class="uuid-cfc650d9-a89b-4edf-bd37-6a7cb133f625" d="M397.73,59.69h84.65v.72c-.24,21.11-12.11,39.41-29.47,48.87-8.26-21.59-55.18-23.86-55.18-49.58Z"/><path class="uuid-401610c6-0ca8-471a-a3c8-7a017424519a" d="M284.77,31.49V116.14h.72c21.11-.24,39.41-12.11,48.87-29.47-21.59-8.26-23.86-55.18-49.58-55.18Z"/><path class="uuid-cfc650d9-a89b-4edf-bd37-6a7cb133f625" d="M538.82,31.46V116.11h.72c21.11-.24,39.41-12.11,48.87-29.47-21.59-8.26-23.86-55.18-49.58-55.18Z"/><path class="uuid-401610c6-0ca8-471a-a3c8-7a017424519a" d="M538.82,3.26V87.91h-.72c-21.11-.24-39.41-12.11-48.87-29.47,21.59-8.26,23.86-55.18,49.58-55.18Z"/><path class="uuid-fb36ac19-481c-4cab-bb71-9fda258d0dfb" d="M284.77,87.88V3.23h-.72c-21.11,.24-39.41,12.11-48.87,29.47,21.59,8.26,23.86,55.18,49.58,55.18Z"/><path class="uuid-115531ba-a5fc-49c5-934f-0ff5b746eec2" d="M425.95,3.24c31.16,0,56.43,25.27,56.43,56.45-31.16,0-56.43-25.27-56.43-56.45Z"/><path class="uuid-401610c6-0ca8-471a-a3c8-7a017424519a" d="M567.05,3.23V31.46c25.73,0,28,46.92,49.58,55.18,4.38-8.01,6.85-17.19,6.85-26.96,0-31.18-25.27-56.45-56.43-56.45Z"/><path class="uuid-cfc650d9-a89b-4edf-bd37-6a7cb133f625" d="M736.93,3.24c31.16,0,56.43,25.27,56.43,56.45-31.16,0-56.43-25.27-56.43-56.45Z"/><path class="uuid-fb36ac19-481c-4cab-bb71-9fda258d0dfb" d="M341.25,59.68c31.16,0,56.43,25.27,56.43,56.45-31.16,0-56.43-25.27-56.43-56.45Z"/><path class="uuid-115531ba-a5fc-49c5-934f-0ff5b746eec2" d="M1244.96,115.41v-28.24c-25.73,0-28-46.92-49.58-55.18-4.38,8.01-6.85,17.19-6.85,26.96,0,31.18,25.27,56.45,56.43,56.45Z"/><path class="uuid-cfc650d9-a89b-4edf-bd37-6a7cb133f625" d="M1273.19,58.96c-31.16,0-56.43-25.27-56.43-56.45,31.16,0,56.43,25.27,56.43,56.45Z"/><path class="uuid-115531ba-a5fc-49c5-934f-0ff5b746eec2" d="M736.38,59.71c-31.17,0-56.44-25.27-56.44-56.46,31.17,0,56.44,25.27,56.44,56.46Z"/><path class="uuid-fb36ac19-481c-4cab-bb71-9fda258d0dfb" d="M736.4,59.71c-31.18,0-56.46,25.27-56.46,56.46,31.18,0,56.46-25.27,56.46-56.46Z"/><path class="uuid-401610c6-0ca8-471a-a3c8-7a017424519a" d="M679.94,3.25c-31.18,0-56.46,25.27-56.46,56.46,31.18,0,56.46-25.27,56.46-56.46Z"/><path class="uuid-cfc650d9-a89b-4edf-bd37-6a7cb133f625" d="M623.48,59.71c31.18,0,56.46,25.27,56.46,56.46-31.18,0-56.46-25.27-56.46-56.46Z"/><path class="uuid-fb36ac19-481c-4cab-bb71-9fda258d0dfb" d="M1216.75,2.5c-31.18,0-56.46,25.27-56.46,56.46,31.18,0,56.46-25.27,56.46-56.46Z"/><path class="uuid-401610c6-0ca8-471a-a3c8-7a017424519a" d="M2.5,31.46c0,31.16,25.27,56.43,56.45,56.43,0-31.16-25.27-56.43-56.45-56.43Z"/><path class="uuid-fb36ac19-481c-4cab-bb71-9fda258d0dfb" d="M30.75,59.69H115.4v.72c-.24,21.11-12.11,39.41-29.47,48.87-8.26-21.59-55.18-23.86-55.18-49.58Z"/><path class="uuid-115531ba-a5fc-49c5-934f-0ff5b746eec2" d="M341.23,3.25c0,31.16,25.27,56.43,56.45,56.43,0-31.16-25.27-56.43-56.45-56.43Z"/><path class="uuid-115531ba-a5fc-49c5-934f-0ff5b746eec2" d="M171.86,59.7c0,31.16-25.27,56.43-56.45,56.43,0-31.16,25.27-56.43,56.45-56.43Z"/><path class="uuid-401610c6-0ca8-471a-a3c8-7a017424519a" d="M849.79,58.98c0,31.16,25.27,56.43,56.45,56.43,0-31.16-25.27-56.43-56.45-56.43Z"/><path class="uuid-115531ba-a5fc-49c5-934f-0ff5b746eec2" d="M793.33,2.52c0,31.16,25.27,56.43,56.45,56.43,0-31.16-25.27-56.43-56.45-56.43Z"/><path class="uuid-115531ba-a5fc-49c5-934f-0ff5b746eec2" d="M934.47,58.96h-84.65v.72c.24,21.11,12.11,39.41,29.47,48.87,8.26-21.59,55.18-23.86,55.18-49.58Z"/><path class="uuid-cfc650d9-a89b-4edf-bd37-6a7cb133f625" d="M878.05,58.96h84.65v-.72c-.24-21.11-12.11-39.41-29.47-48.87-8.26,21.59-55.18,23.86-55.18,49.58Z"/><path class="uuid-fb36ac19-481c-4cab-bb71-9fda258d0dfb" d="M849.79,58.98c0,31.16-25.27,56.43-56.45,56.43,0-31.16,25.27-56.43,56.45-56.43Z"/><path class="uuid-cfc650d9-a89b-4edf-bd37-6a7cb133f625" d="M115.4,3.23c0,31.18-25.27,56.46-56.46,56.46,0-31.18,25.27-56.46,56.46-56.46Z"/><path class="uuid-fb36ac19-481c-4cab-bb71-9fda258d0dfb" d="M482.39,59.68c31.16,0,56.43-25.27,56.43-56.45-31.16,0-56.43,25.27-56.43,56.45Z"/><path class="uuid-401610c6-0ca8-471a-a3c8-7a017424519a" d="M793.35,59.69c-31.17,0-56.44,25.27-56.44,56.46,31.17,0,56.44-25.27,56.44-56.46Z"/><path class="uuid-cfc650d9-a89b-4edf-bd37-6a7cb133f625" d="M1357.94,59.71h84.65v-.72c-.24-21.11-12.11-39.41-29.47-48.87-8.26,21.59-55.18,23.86-55.18,49.58Z"/><path class="uuid-401610c6-0ca8-471a-a3c8-7a017424519a" d="M1357.96,59.69h28.24c0,25.73,46.92,28,55.18,49.58-8.01,4.38-17.19,6.85-26.96,6.85-31.18,0-56.45-25.27-56.45-56.43Z"/><path class="uuid-fb36ac19-481c-4cab-bb71-9fda258d0dfb" d="M1612.03,116.14c31.16,0,56.43-25.27,56.43-56.45-31.16,0-56.43,25.27-56.43,56.45Z"/><path class="uuid-115531ba-a5fc-49c5-934f-0ff5b746eec2" d="M1470.89,116.14c31.16,0,56.43-25.27,56.43-56.45-31.16,0-56.43,25.27-56.43,56.45Z"/><path class="uuid-cfc650d9-a89b-4edf-bd37-6a7cb133f625" d="M1583.83,59.69h84.65v.72c-.24,21.11-12.11,39.41-29.47,48.87-8.26-21.59-55.18-23.86-55.18-49.58Z"/><path class="uuid-401610c6-0ca8-471a-a3c8-7a017424519a" d="M1470.87,31.49V116.14h.72c21.11-.24,39.41-12.11,48.87-29.47-21.59-8.26-23.86-55.18-49.58-55.18Z"/><path class="uuid-cfc650d9-a89b-4edf-bd37-6a7cb133f625" d="M1724.93,31.46V116.11h.72c21.11-.24,39.41-12.11,48.87-29.47-21.59-8.26-23.86-55.18-49.58-55.18Z"/><path class="uuid-401610c6-0ca8-471a-a3c8-7a017424519a" d="M1724.93,3.26V87.91h-.72c-21.11-.24-39.41-12.11-48.87-29.47,21.59-8.26,23.86-55.18,49.58-55.18Z"/><path class="uuid-fb36ac19-481c-4cab-bb71-9fda258d0dfb" d="M1470.87,87.88V3.23h-.72c-21.11,.24-39.41,12.11-48.87,29.47,21.59,8.26,23.86,55.18,49.58,55.18Z"/><path class="uuid-115531ba-a5fc-49c5-934f-0ff5b746eec2" d="M1612.06,3.24c31.16,0,56.43,25.27,56.43,56.45-31.16,0-56.43-25.27-56.43-56.45Z"/><path class="uuid-401610c6-0ca8-471a-a3c8-7a017424519a" d="M1753.15,3.23V31.46c25.73,0,28,46.92,49.58,55.18,4.38-8.01,6.85-17.19,6.85-26.96,0-31.18-25.27-56.45-56.43-56.45Z"/><path class="uuid-fb36ac19-481c-4cab-bb71-9fda258d0dfb" d="M1527.35,59.68c31.16,0,56.43,25.27,56.43,56.45-31.16,0-56.43-25.27-56.43-56.45Z"/><path class="uuid-115531ba-a5fc-49c5-934f-0ff5b746eec2" d="M1922.48,59.71c-31.17,0-56.44-25.27-56.44-56.46,31.17,0,56.44,25.27,56.44,56.46Z"/><path class="uuid-fb36ac19-481c-4cab-bb71-9fda258d0dfb" d="M1922.5,59.71c-31.18,0-56.46,25.27-56.46,56.46,31.18,0,56.46-25.27,56.46-56.46Z"/><path class="uuid-401610c6-0ca8-471a-a3c8-7a017424519a" d="M1866.04,3.25c-31.18,0-56.46,25.27-56.46,56.46,31.18,0,56.46-25.27,56.46-56.46Z"/><path class="uuid-cfc650d9-a89b-4edf-bd37-6a7cb133f625" d="M1809.59,59.71c31.18,0,56.46,25.27,56.46,56.46-31.18,0-56.46-25.27-56.46-56.46Z"/><path class="uuid-115531ba-a5fc-49c5-934f-0ff5b746eec2" d="M1527.33,3.25c0,31.16,25.27,56.43,56.45,56.43,0-31.16-25.27-56.43-56.45-56.43Z"/><path class="uuid-fb36ac19-481c-4cab-bb71-9fda258d0dfb" d="M1668.49,59.68c31.16,0,56.43-25.27,56.43-56.45-31.16,0-56.43,25.27-56.43,56.45Z"/></g></svg>