<?xml version="1.0" encoding="UTF-8"?><svg id="uuid-4604c1dd-cbe9-45df-98ed-656c5711f24f" xmlns="http://www.w3.org/2000/svg" width="1924.84" height="118.66" viewBox="0 0 1924.84 118.66"><defs><style>.uuid-5141e26f-309b-49b4-a24b-6f2f2b2b9f83{fill:#fff;}.uuid-5141e26f-309b-49b4-a24b-6f2f2b2b9f83,.uuid-0b609261-8ba2-43ec-8fb3-921f7adcff6d,.uuid-bd664469-ef71-4e60-834f-787da17ad87f,.uuid-c8c32a44-8877-4f02-a606-5c204828caf8{stroke:#080f0f;stroke-miterlimit:10;stroke-width:5px;}.uuid-0b609261-8ba2-43ec-8fb3-921f7adcff6d{fill:#feb1fe;}.uuid-bd664469-ef71-4e60-834f-787da17ad87f{fill:#b7feb9;}.uuid-c8c32a44-8877-4f02-a606-5c204828caf8{fill:#a8feff;}</style></defs><g id="uuid-40e932ad-d449-4b95-ad1d-181f939c4adf"><path class="uuid-5141e26f-309b-49b4-a24b-6f2f2b2b9f83" d="M708.14,59.71h84.65v-.72c-.24-21.11-12.11-39.41-29.47-48.87-8.26,21.59-55.18,23.86-55.18,49.58Z"/><path class="uuid-0b609261-8ba2-43ec-8fb3-921f7adcff6d" d="M821.01,59.69h28.24c0,25.73,46.92,28,55.18,49.58-8.01,4.38-17.19,6.85-26.96,6.85-31.18,0-56.45-25.27-56.45-56.43Z"/><path class="uuid-0b609261-8ba2-43ec-8fb3-921f7adcff6d" d="M1837.68,115.4c-31.16,0-56.43-25.27-56.43-56.45,31.16,0,56.43,25.27,56.43,56.45Z"/><path class="uuid-5141e26f-309b-49b4-a24b-6f2f2b2b9f83" d="M1668.29,2.5c-31.16,0-56.43,25.27-56.43,56.45,31.16,0,56.43-25.27,56.43-56.45Z"/><path class="uuid-5141e26f-309b-49b4-a24b-6f2f2b2b9f83" d="M1809.43,2.5c-31.16,0-56.43,25.27-56.43,56.45,31.16,0,56.43-25.27,56.43-56.45Z"/><path class="uuid-bd664469-ef71-4e60-834f-787da17ad87f" d="M1752.99,115.41v-28.24c-25.73,0-28-46.92-49.58-55.18-4.38,8.01-6.85,17.19-6.85,26.96,0,31.18,25.27,56.45,56.43,56.45Z"/><path class="uuid-c8c32a44-8877-4f02-a606-5c204828caf8" d="M1696.49,58.95h-84.65v-.72c.24-21.11,12.11-39.41,29.47-48.87,8.26,21.59,55.18,23.86,55.18,49.58Z"/><path class="uuid-c8c32a44-8877-4f02-a606-5c204828caf8" d="M1809.45,87.15V2.5h-.72c-21.11,.24-39.41,12.11-48.87,29.47,21.59,8.26,23.86,55.18,49.58,55.18Z"/><path class="uuid-5141e26f-309b-49b4-a24b-6f2f2b2b9f83" d="M1611.84,58.23c-.02,.24-.02,.5-.02,.74s0,.48,.02,.72v-1.45Z"/><path class="uuid-0b609261-8ba2-43ec-8fb3-921f7adcff6d" d="M1668.26,115.4c-31.16,0-56.43-25.27-56.43-56.45,31.16,0,56.43,25.27,56.43,56.45Z"/><path class="uuid-5141e26f-309b-49b4-a24b-6f2f2b2b9f83" d="M1611.83,58.96c-31.16,0-56.43-25.27-56.43-56.45,31.16,0,56.43,25.27,56.43,56.45Z"/><path class="uuid-0b609261-8ba2-43ec-8fb3-921f7adcff6d" d="M1752.97,58.96c-31.16,0-56.43-25.27-56.43-56.45,31.16,0,56.43,25.27,56.43,56.45Z"/><path class="uuid-5141e26f-309b-49b4-a24b-6f2f2b2b9f83" d="M1075.09,116.14c31.16,0,56.43-25.27,56.43-56.45-31.16,0-56.43,25.27-56.43,56.45Z"/><path class="uuid-c8c32a44-8877-4f02-a606-5c204828caf8" d="M933.95,116.14c31.16,0,56.43-25.27,56.43-56.45-31.16,0-56.43,25.27-56.43,56.45Z"/><path class="uuid-bd664469-ef71-4e60-834f-787da17ad87f" d="M1046.88,59.69h84.65v.72c-.24,21.11-12.11,39.41-29.47,48.87-8.26-21.59-55.18-23.86-55.18-49.58Z"/><path class="uuid-0b609261-8ba2-43ec-8fb3-921f7adcff6d" d="M933.92,31.49V116.14h.72c21.11-.24,39.41-12.11,48.87-29.47-21.59-8.26-23.86-55.18-49.58-55.18Z"/><path class="uuid-bd664469-ef71-4e60-834f-787da17ad87f" d="M1187.98,31.46V116.11h.72c21.11-.24,39.41-12.11,48.87-29.47-21.59-8.26-23.86-55.18-49.58-55.18Z"/><path class="uuid-0b609261-8ba2-43ec-8fb3-921f7adcff6d" d="M1187.98,3.26V87.91h-.72c-21.11-.24-39.41-12.11-48.87-29.47,21.59-8.26,23.86-55.18,49.58-55.18Z"/><path class="uuid-5141e26f-309b-49b4-a24b-6f2f2b2b9f83" d="M933.92,87.88V3.23h-.72c-21.11,.24-39.41,12.11-48.87,29.47,21.59,8.26,23.86,55.18,49.58,55.18Z"/><path class="uuid-c8c32a44-8877-4f02-a606-5c204828caf8" d="M1075.11,3.24c31.16,0,56.43,25.27,56.43,56.45-31.16,0-56.43-25.27-56.43-56.45Z"/><path class="uuid-0b609261-8ba2-43ec-8fb3-921f7adcff6d" d="M1216.2,3.23V31.46c25.73,0,28,46.92,49.58,55.18,4.38-8.01,6.85-17.19,6.85-26.96,0-31.18-25.27-56.45-56.43-56.45Z"/><path class="uuid-bd664469-ef71-4e60-834f-787da17ad87f" d="M1386.09,3.24c31.16,0,56.43,25.27,56.43,56.45-31.16,0-56.43-25.27-56.43-56.45Z"/><path class="uuid-5141e26f-309b-49b4-a24b-6f2f2b2b9f83" d="M990.4,59.68c31.16,0,56.43,25.27,56.43,56.45-31.16,0-56.43-25.27-56.43-56.45Z"/><path class="uuid-c8c32a44-8877-4f02-a606-5c204828caf8" d="M1894.11,115.41v-28.24c-25.73,0-28-46.92-49.58-55.18-4.38,8.01-6.85,17.19-6.85,26.96,0,31.18,25.27,56.45,56.43,56.45Z"/><path class="uuid-bd664469-ef71-4e60-834f-787da17ad87f" d="M1922.34,58.96c-31.16,0-56.43-25.27-56.43-56.45,31.16,0,56.43,25.27,56.43,56.45Z"/><path class="uuid-c8c32a44-8877-4f02-a606-5c204828caf8" d="M1385.53,59.71c-31.17,0-56.44-25.27-56.44-56.46,31.17,0,56.44,25.27,56.44,56.46Z"/><path class="uuid-5141e26f-309b-49b4-a24b-6f2f2b2b9f83" d="M1385.55,59.71c-31.18,0-56.46,25.27-56.46,56.46,31.18,0,56.46-25.27,56.46-56.46Z"/><path class="uuid-0b609261-8ba2-43ec-8fb3-921f7adcff6d" d="M1329.09,3.25c-31.18,0-56.46,25.27-56.46,56.46,31.18,0,56.46-25.27,56.46-56.46Z"/><path class="uuid-bd664469-ef71-4e60-834f-787da17ad87f" d="M1272.64,59.71c31.18,0,56.46,25.27,56.46,56.46-31.18,0-56.46-25.27-56.46-56.46Z"/><path class="uuid-c8c32a44-8877-4f02-a606-5c204828caf8" d="M256.46,59.71c-31.17,0-56.44-25.27-56.44-56.46,31.17,0,56.44,25.27,56.44,56.46Z"/><path class="uuid-5141e26f-309b-49b4-a24b-6f2f2b2b9f83" d="M256.48,59.71c-31.18,0-56.46,25.27-56.46,56.46,31.18,0,56.46-25.27,56.46-56.46Z"/><path class="uuid-0b609261-8ba2-43ec-8fb3-921f7adcff6d" d="M200.03,3.25c-31.18,0-56.46,25.27-56.46,56.46,31.18,0,56.46-25.27,56.46-56.46Z"/><path class="uuid-bd664469-ef71-4e60-834f-787da17ad87f" d="M143.57,59.71c31.18,0,56.46,25.27,56.46,56.46-31.18,0-56.46-25.27-56.46-56.46Z"/><path class="uuid-5141e26f-309b-49b4-a24b-6f2f2b2b9f83" d="M1865.9,2.5c-31.18,0-56.46,25.27-56.46,56.46,31.18,0,56.46-25.27,56.46-56.46Z"/><path class="uuid-c8c32a44-8877-4f02-a606-5c204828caf8" d="M990.38,3.25c0,31.16,25.27,56.43,56.45,56.43,0-31.16-25.27-56.43-56.45-56.43Z"/><path class="uuid-c8c32a44-8877-4f02-a606-5c204828caf8" d="M821.01,59.7c0,31.16-25.27,56.43-56.45,56.43,0-31.16,25.27-56.43,56.45-56.43Z"/><path class="uuid-0b609261-8ba2-43ec-8fb3-921f7adcff6d" d="M1498.94,58.98c0,31.16,25.27,56.43,56.45,56.43,0-31.16-25.27-56.43-56.45-56.43Z"/><path class="uuid-c8c32a44-8877-4f02-a606-5c204828caf8" d="M1442.49,2.52c0,31.16,25.27,56.43,56.45,56.43,0-31.16-25.27-56.43-56.45-56.43Z"/><path class="uuid-c8c32a44-8877-4f02-a606-5c204828caf8" d="M1583.62,58.96h-84.65v.72c.24,21.11,12.11,39.41,29.47,48.87,8.26-21.59,55.18-23.86,55.18-49.58Z"/><path class="uuid-bd664469-ef71-4e60-834f-787da17ad87f" d="M1527.2,58.96h84.65v-.72c-.24-21.11-12.11-39.41-29.47-48.87-8.26,21.59-55.18,23.86-55.18,49.58Z"/><path class="uuid-5141e26f-309b-49b4-a24b-6f2f2b2b9f83" d="M1498.94,58.98c0,31.16-25.27,56.43-56.45,56.43,0-31.16,25.27-56.43,56.45-56.43Z"/><path class="uuid-bd664469-ef71-4e60-834f-787da17ad87f" d="M764.56,116.14c0-31.18-25.27-56.46-56.46-56.46,0,31.18,25.27,56.46,56.46,56.46Z"/><path class="uuid-5141e26f-309b-49b4-a24b-6f2f2b2b9f83" d="M1131.54,59.68c31.16,0,56.43-25.27,56.43-56.45-31.16,0-56.43,25.27-56.43,56.45Z"/><path class="uuid-bd664469-ef71-4e60-834f-787da17ad87f" d="M256.46,59.66h84.65v.72c-.24,21.11-12.11,39.41-29.47,48.87-8.26-21.59-55.18-23.86-55.18-49.58Z"/><path class="uuid-0b609261-8ba2-43ec-8fb3-921f7adcff6d" d="M256.48,59.68h28.24c0-25.73,46.92-28,55.18-49.58-8.01-4.38-17.19-6.85-26.96-6.85-31.18,0-56.45,25.27-56.45,56.43Z"/><path class="uuid-5141e26f-309b-49b4-a24b-6f2f2b2b9f83" d="M510.55,3.23c31.16,0,56.43,25.27,56.43,56.45-31.16,0-56.43-25.27-56.43-56.45Z"/><path class="uuid-c8c32a44-8877-4f02-a606-5c204828caf8" d="M369.41,3.23c31.16,0,56.43,25.27,56.43,56.45-31.16,0-56.43-25.27-56.43-56.45Z"/><path class="uuid-bd664469-ef71-4e60-834f-787da17ad87f" d="M482.35,59.67h84.65v-.72c-.24-21.11-12.11-39.41-29.47-48.87-8.26,21.59-55.18,23.86-55.18,49.58Z"/><path class="uuid-0b609261-8ba2-43ec-8fb3-921f7adcff6d" d="M369.39,87.88V3.23h.72c21.11,.24,39.41,12.11,48.87,29.47-21.59,8.26-23.86,55.18-49.58,55.18Z"/><path class="uuid-bd664469-ef71-4e60-834f-787da17ad87f" d="M623.45,87.91V3.26h.72c21.11,.24,39.41,12.11,48.87,29.47-21.59,8.26-23.86,55.18-49.58,55.18Z"/><path class="uuid-0b609261-8ba2-43ec-8fb3-921f7adcff6d" d="M623.45,116.11V31.46h-.72c-21.11,.24-39.41,12.11-48.87,29.47,21.59,8.26,23.86,55.18,49.58,55.18Z"/><path class="uuid-5141e26f-309b-49b4-a24b-6f2f2b2b9f83" d="M369.39,31.49V116.14h-.72c-21.11-.24-39.41-12.11-48.87-29.47,21.59-8.26,23.86-55.18,49.58-55.18Z"/><path class="uuid-c8c32a44-8877-4f02-a606-5c204828caf8" d="M510.58,116.13c31.16,0,56.43-25.27,56.43-56.45-31.16,0-56.43,25.27-56.43,56.45Z"/><path class="uuid-0b609261-8ba2-43ec-8fb3-921f7adcff6d" d="M651.67,116.14v-28.24c25.73,0,28-46.92,49.58-55.18,4.38,8.01,6.85,17.19,6.85,26.96,0,31.18-25.27,56.45-56.43,56.45Z"/><path class="uuid-5141e26f-309b-49b4-a24b-6f2f2b2b9f83" d="M425.87,59.68c31.16,0,56.43-25.27,56.43-56.45-31.16,0-56.43,25.27-56.43,56.45Z"/><path class="uuid-c8c32a44-8877-4f02-a606-5c204828caf8" d="M425.85,116.12c0-31.16,25.27-56.43,56.45-56.43,0,31.16-25.27,56.43-56.45,56.43Z"/><path class="uuid-5141e26f-309b-49b4-a24b-6f2f2b2b9f83" d="M567.01,59.68c31.16,0,56.43,25.27,56.43,56.45-31.16,0-56.43-25.27-56.43-56.45Z"/><path class="uuid-bd664469-ef71-4e60-834f-787da17ad87f" d="M58.93,87.91V3.26h.72c21.11,.24,39.41,12.11,48.87,29.47-21.59,8.26-23.86,55.18-49.58,55.18Z"/><path class="uuid-0b609261-8ba2-43ec-8fb3-921f7adcff6d" d="M58.93,31.46V116.11h-.72c-21.11-.24-39.41-12.11-48.87-29.47,21.59-8.26,23.86-55.18,49.58-55.18Z"/><path class="uuid-0b609261-8ba2-43ec-8fb3-921f7adcff6d" d="M87.16,116.14v-28.24c25.73,0,28-46.92,49.58-55.18,4.38,8.01,6.85,17.19,6.85,26.96,0,31.18-25.27,56.45-56.43,56.45Z"/><path class="uuid-5141e26f-309b-49b4-a24b-6f2f2b2b9f83" d="M2.5,59.68c31.16,0,56.43,25.27,56.43,56.45-31.16,0-56.43-25.27-56.43-56.45Z"/><path class="uuid-0b609261-8ba2-43ec-8fb3-921f7adcff6d" d="M1442.5,59.69c-31.17,0-56.44,25.27-56.44,56.46,31.17,0,56.44-25.27,56.44-56.46Z"/></g></svg>