<?xml version="1.0" encoding="UTF-8"?><svg id="uuid-405641cb-b925-44d1-946f-0c349c3d44e6" xmlns="http://www.w3.org/2000/svg" width="295.6" height="72.8" viewBox="0 0 295.6 72.8"><g id="uuid-c0baca8c-5270-4b78-bec1-0cd71672226d"><path d="M26.2,72.8c-5,0-9.48-.88-13.45-2.65-3.97-1.77-7.08-4.47-9.35-8.1-2.27-3.63-3.4-8.25-3.4-13.85v-1.9H7v1.9c0,6.27,1.8,10.9,5.4,13.9,3.6,3,8.2,4.5,13.8,4.5s10.12-1.3,13.15-3.9c3.03-2.6,4.55-5.93,4.55-10,0-2.73-.67-4.93-2-6.6-1.33-1.67-3.2-3-5.6-4s-5.2-1.9-8.4-2.7l-6-1.5c-3.87-1-7.33-2.25-10.4-3.75-3.07-1.5-5.47-3.48-7.2-5.95-1.73-2.47-2.6-5.6-2.6-9.4s.98-7.22,2.95-10.05c1.97-2.83,4.7-5,8.2-6.5S20.4,0,25,0s8.87,.8,12.6,2.4c3.73,1.6,6.68,3.97,8.85,7.1,2.17,3.13,3.25,7.07,3.25,11.8v4.5h-7v-4.5c0-3.6-.79-6.5-2.35-8.7-1.57-2.2-3.68-3.82-6.35-4.85-2.67-1.03-5.67-1.55-9-1.55-4.73,0-8.63,1.08-11.7,3.25-3.07,2.17-4.6,5.25-4.6,9.25,0,2.73,.63,4.92,1.9,6.55,1.27,1.63,3.05,2.93,5.35,3.9,2.3,.97,5.05,1.85,8.25,2.65l6,1.5c3.8,.87,7.27,2.03,10.4,3.5,3.13,1.47,5.63,3.45,7.5,5.95,1.87,2.5,2.8,5.82,2.8,9.95s-1.02,7.6-3.05,10.6c-2.03,3-4.9,5.33-8.6,7-3.7,1.67-8.05,2.5-13.05,2.5Z"/><path d="M64.7,71.4V1.4h26.2c4.13,0,7.85,.8,11.15,2.4,3.3,1.6,5.92,3.87,7.85,6.8,1.93,2.93,2.9,6.53,2.9,10.8v1.2c0,4.2-.98,7.8-2.95,10.8-1.97,3-4.6,5.27-7.9,6.8-3.3,1.53-6.98,2.3-11.05,2.3h-19.2v28.9h-7Zm7-35.2h18.4c4.87,0,8.7-1.2,11.5-3.6,2.8-2.4,4.2-5.77,4.2-10.1v-1c0-4.4-1.38-7.78-4.15-10.15-2.77-2.37-6.62-3.55-11.55-3.55h-18.4v28.4Z"/><path d="M113.2,71.4L135.7,1.4h12.5l22.4,70h-7.3l-5.8-18.3h-31.2l-5.8,18.3h-7.3Zm15.1-24.7h27.3l-13-41.1h-1.3l-13,41.1Z"/><path d="M181.8,71.4V1.4h27.7c4.33,0,8.15,.73,11.45,2.2,3.3,1.47,5.9,3.58,7.8,6.35,1.9,2.77,2.85,6.12,2.85,10.05v1c0,4.73-1.13,8.43-3.4,11.1-2.27,2.67-4.9,4.47-7.9,5.4v1.2c2.33,.07,4.3,.82,5.9,2.25,1.6,1.43,2.4,3.68,2.4,6.75v23.7h-7.1v-22.9c0-2.07-.57-3.67-1.7-4.8-1.13-1.13-2.83-1.7-5.1-1.7h-25.9v29.4h-7Zm7-35.8h20c5,0,8.87-1.18,11.6-3.55,2.73-2.37,4.1-5.72,4.1-10.05v-.6c0-4.33-1.33-7.68-4-10.05-2.67-2.37-6.57-3.55-11.7-3.55h-20v27.8Z"/><path d="M244.9,71.4V1.4h7v31.2h1.3L284.7,1.4h9.7l-35.5,34.6,36.7,35.4h-9.9l-32.5-31.8h-1.3v31.8h-7Z"/></g></svg>