<?xml version="1.0" encoding="UTF-8"?><svg id="uuid-c88c045c-7b6e-474d-90b6-511420e2251b" xmlns="http://www.w3.org/2000/svg" width="1078.6" height="1078.6" viewBox="0 0 1078.6 1078.6"><defs><style>.uuid-c9ee03a4-93cd-46a2-966c-76f5236b51fe{fill:#a8feff;}.uuid-c9ee03a4-93cd-46a2-966c-76f5236b51fe,.uuid-44094ffa-294f-4aed-bb40-d494678e8bb9,.uuid-58ed264f-12c4-4612-9fed-51f49034d4c0,.uuid-72f17066-2c0d-4172-a9ad-5dbc26bdecf6,.uuid-14a8b362-90c1-4f20-affd-d8b65b1a272e{stroke:#000;stroke-linecap:round;stroke-linejoin:round;stroke-width:40px;}.uuid-44094ffa-294f-4aed-bb40-d494678e8bb9{fill:#feb1fe;}.uuid-58ed264f-12c4-4612-9fed-51f49034d4c0{fill:#b7feb9;}.uuid-72f17066-2c0d-4172-a9ad-5dbc26bdecf6{fill:#fff;}.uuid-14a8b362-90c1-4f20-affd-d8b65b1a272e{fill:none;}</style></defs><g id="uuid-7c780403-eb6d-469f-8542-395d441ac59c"><path class="uuid-44094ffa-294f-4aed-bb40-d494678e8bb9" d="M539.3,20c0,286.81-232.5,519.3-519.3,519.3C20,252.5,252.49,20,539.3,20Z"/><path class="uuid-c9ee03a4-93cd-46a2-966c-76f5236b51fe" d="M1058.6,539.3c-286.81,0-519.3-232.49-519.3-519.3,286.8,0,519.3,232.5,519.3,519.3Z"/><path class="uuid-58ed264f-12c4-4612-9fed-51f49034d4c0" d="M539.3,1058.6c-286.81,0-519.3-232.49-519.3-519.3,286.8,0,519.3,232.5,519.3,519.3Z"/><path class="uuid-14a8b362-90c1-4f20-affd-d8b65b1a272e" d="M1058.6,539.3c-286.81,0-519.3,232.5-519.3,519.3,0-286.8-232.5-519.3-519.3-519.3,286.8,0,519.3-232.49,519.3-519.3,0,286.81,232.49,519.3,519.3,519.3Z"/><path class="uuid-72f17066-2c0d-4172-a9ad-5dbc26bdecf6" d="M1058.6,539.3c0,286.81-232.5,519.3-519.3,519.3,0-286.8,232.49-519.3,519.3-519.3Z"/></g></svg>