<?xml version="1.0" encoding="UTF-8"?><svg id="uuid-76f287a8-fefe-43fd-aae3-3f84374516e9" xmlns="http://www.w3.org/2000/svg" width="1078.6" height="1078.6" viewBox="0 0 1078.6 1078.6"><defs><style>.uuid-738e8d24-b9b8-494a-85e2-2b9d2c842b6e{fill:#fff;}.uuid-738e8d24-b9b8-494a-85e2-2b9d2c842b6e,.uuid-a9399653-3dd1-41bc-8957-ab2c75630f0c,.uuid-455fccce-d405-43c0-8c9f-0c09e1a19ddd,.uuid-f17208d0-6c5d-4a88-855f-d876d729c2b8,.uuid-823715af-c871-4a8a-95df-96a141e4a8fd{stroke:#000;stroke-miterlimit:10;stroke-width:40px;}.uuid-a9399653-3dd1-41bc-8957-ab2c75630f0c{fill:#feb1fe;}.uuid-455fccce-d405-43c0-8c9f-0c09e1a19ddd{fill:#b7feb9;}.uuid-f17208d0-6c5d-4a88-855f-d876d729c2b8{fill:#a8feff;}.uuid-823715af-c871-4a8a-95df-96a141e4a8fd{fill:none;}</style></defs><g id="uuid-6c90c98f-512c-453b-aec9-5fedab447011"><path class="uuid-a9399653-3dd1-41bc-8957-ab2c75630f0c" d="M539.3,20c0,286.81-232.5,519.3-519.3,519.3C20,252.5,252.49,20,539.3,20Z"/><path class="uuid-f17208d0-6c5d-4a88-855f-d876d729c2b8" d="M1058.6,539.3c-286.81,0-519.3-232.49-519.3-519.3,286.8,0,519.3,232.5,519.3,519.3Z"/><path class="uuid-455fccce-d405-43c0-8c9f-0c09e1a19ddd" d="M539.3,1058.6c-286.81,0-519.3-232.49-519.3-519.3,286.8,0,519.3,232.5,519.3,519.3Z"/><path class="uuid-738e8d24-b9b8-494a-85e2-2b9d2c842b6e" d="M1058.6,539.3c-286.81,0-519.3,232.5-519.3,519.3,0-286.8-232.5-519.3-519.3-519.3,286.8,0,519.3-232.49,519.3-519.3,0,286.81,232.49,519.3,519.3,519.3Z"/><path class="uuid-823715af-c871-4a8a-95df-96a141e4a8fd" d="M1058.6,539.3c0,286.81-232.5,519.3-519.3,519.3,0-286.8,232.49-519.3,519.3-519.3Z"/></g></svg>