<?xml version="1.0" encoding="UTF-8"?><svg id="uuid-3155e142-d755-403f-af49-ea99260040be" xmlns="http://www.w3.org/2000/svg" width="289.9" height="72.8" viewBox="0 0 289.9 72.8"><g id="uuid-990d6a0a-e5aa-4625-aebd-350370d58658"><path d="M26.2,72.8c-5,0-9.48-.88-13.45-2.65-3.97-1.77-7.08-4.47-9.35-8.1-2.27-3.63-3.4-8.25-3.4-13.85v-1.9H7v1.9c0,6.27,1.8,10.9,5.4,13.9s8.2,4.5,13.8,4.5,10.12-1.3,13.15-3.9c3.03-2.6,4.55-5.93,4.55-10,0-2.73-.67-4.93-2-6.6-1.33-1.67-3.2-3-5.6-4s-5.2-1.9-8.4-2.7l-6-1.5c-3.87-1-7.33-2.25-10.4-3.75-3.07-1.5-5.47-3.48-7.2-5.95-1.73-2.47-2.6-5.6-2.6-9.4s.98-7.22,2.95-10.05c1.97-2.83,4.7-5,8.2-6.5S20.4,0,25,0s8.87,.8,12.6,2.4c3.73,1.6,6.68,3.97,8.85,7.1,2.17,3.13,3.25,7.07,3.25,11.8v4.5h-7v-4.5c0-3.6-.78-6.5-2.35-8.7-1.57-2.2-3.68-3.82-6.35-4.85-2.67-1.03-5.67-1.55-9-1.55-4.73,0-8.63,1.08-11.7,3.25-3.07,2.17-4.6,5.25-4.6,9.25,0,2.73,.63,4.92,1.9,6.55,1.27,1.63,3.05,2.93,5.35,3.9,2.3,.97,5.05,1.85,8.25,2.65l6,1.5c3.8,.87,7.27,2.03,10.4,3.5,3.13,1.47,5.63,3.45,7.5,5.95,1.87,2.5,2.8,5.82,2.8,9.95s-1.02,7.6-3.05,10.6c-2.03,3-4.9,5.33-8.6,7-3.7,1.67-8.05,2.5-13.05,2.5Z"/><path d="M79,71.4V7.8h-23.1V1.4h53.2V7.8h-23.1v63.6h-7Z"/><path d="M120.3,71.4V1.4h27.7c4.33,0,8.15,.73,11.45,2.2,3.3,1.47,5.9,3.58,7.8,6.35,1.9,2.77,2.85,6.12,2.85,10.05v1c0,4.73-1.13,8.43-3.4,11.1-2.27,2.67-4.9,4.47-7.9,5.4v1.2c2.33,.07,4.3,.82,5.9,2.25,1.6,1.43,2.4,3.68,2.4,6.75v23.7h-7.1v-22.9c0-2.07-.57-3.67-1.7-4.8-1.13-1.13-2.83-1.7-5.1-1.7h-25.9v29.4h-7Zm7-35.8h20c5,0,8.87-1.18,11.6-3.55,2.73-2.37,4.1-5.72,4.1-10.05v-.6c0-4.33-1.33-7.68-4-10.05-2.67-2.37-6.57-3.55-11.7-3.55h-20v27.8Z"/><path d="M204.7,72.8c-6.73,0-12.07-1.92-16-5.75-3.93-3.83-5.9-9.38-5.9-16.65v-4.6h7.1v4.6c0,4.73,1.22,8.58,3.65,11.55,2.43,2.97,6.18,4.45,11.25,4.45s8.62-1.48,10.65-4.45c2.03-2.97,3.05-6.82,3.05-11.55V1.4h7V50.4c0,7.27-1.73,12.82-5.2,16.65-3.47,3.83-8.67,5.75-15.6,5.75Zm-21.9-39.7V1.4h7.1v31.7h-7.1Z"/><path d="M241.8,71.4V1.4h26.2c4.13,0,7.85,.8,11.15,2.4,3.3,1.6,5.92,3.87,7.85,6.8,1.93,2.93,2.9,6.53,2.9,10.8v1.2c0,4.2-.98,7.8-2.95,10.8-1.97,3-4.6,5.27-7.9,6.8-3.3,1.53-6.98,2.3-11.05,2.3h-19.2v28.9h-7Zm7-35.2h18.4c4.87,0,8.7-1.2,11.5-3.6,2.8-2.4,4.2-5.77,4.2-10.1v-1c0-4.4-1.38-7.78-4.15-10.15-2.77-2.37-6.62-3.55-11.55-3.55h-18.4v28.4Z"/></g></svg>